# xmcd
#
# Track frame offsets:
#	150
#	19489
#	39021
#	57932
#	77801
#	88824
#	106815
#	125100
#	146619
#	168326
#	188215
#	205610
#	223933
#	248208
#
# Disc length: 3578 seconds
#
# Revision: 0
# Processed by: cddbd v1.5.2PL0 Copyright (c) Steve Scherf et al.
# Submitted via: EasyCDDAExtractor 15.3.0.1
#
DISCID=c60df80e
DTITLE=Gisselle - Mis Favoritas
DYEAR=2010
DGENRE=Latin
TTITLE0=Quiero Estar Contigo
TTITLE1=A Que Vuelve
TTITLE2=Perfume De Mujer En Tu Camisa
TTITLE3=Aroma De Mujer (Version Merengue)
TTITLE4=Voy A Quitarme El Anillo (Version Bachata)
TTITLE5=Piel Morena
TTITLE6=Ya Se Que Es El Final (Forever By Your Side)
TTITLE7=No Bastara (Version Merengue)
TTITLE8=Marchate
TTITLE9=No Hay Aire
TTITLE10=Quien Te Hace El Amor (Arab Mix Radio Edit)
TTITLE11=Fuego En La Cintura (Remix)
TTITLE12=No Me Enamoro (Dance Remix)
TTITLE13=Can't Fight It
EXTD=
EXTT0=
EXTT1=
EXTT2=
EXTT3=
EXTT4=
EXTT5=
EXTT6=
EXTT7=
EXTT8=
EXTT9=
EXTT10=
EXTT11=
EXTT12=
EXTT13=
PLAYORDER=
